<svg width="22" height="23" viewBox="0 0 22 23" fill="none" xmlns="http://www.w3.org/2000/svg">
<g id="Group 21180">
<g id="Union">
<path d="M13.5219 4.06619C14.8481 4.92423 16.0452 5.00227 17.0354 4.78763C17.7514 4.63243 18.3682 4.32232 18.8582 4.03156C18.5675 4.52158 18.2573 5.13841 18.1022 5.85437C17.8875 6.84461 17.9656 8.04166 18.8236 9.36792L18.9953 9.32723C18.1968 8.09295 18.1117 6.96117 18.3215 5.99351C18.5311 5.02623 19.0318 4.2401 19.3789 3.70101L19.2767 3.61309L19.1888 3.51086C18.6497 3.85802 17.8635 4.35865 16.8963 4.56832C15.9286 4.77808 14.7968 4.69302 13.5625 3.89448L13.5219 4.06619Z" fill="#0D0E12"/>
<path fill-rule="evenodd" clip-rule="evenodd" d="M19.3204 3.76261L3.59229 19.4907L3.4006 19.299L19.1287 3.57092L19.3204 3.76261Z" fill="#0D0E12"/>
<path d="M13.5219 4.06619C14.8481 4.92423 16.0452 5.00227 17.0354 4.78763C17.7514 4.63243 18.3682 4.32232 18.8582 4.03156C18.5675 4.52158 18.2573 5.13841 18.1022 5.85437C17.8875 6.84461 17.9656 8.04166 18.8236 9.36792L18.9953 9.32723C18.1968 8.09295 18.1117 6.96117 18.3215 5.99351C18.5311 5.02623 19.0318 4.2401 19.3789 3.70101L19.2767 3.61309L19.1888 3.51086C18.6497 3.85802 17.8635 4.35865 16.8963 4.56832C15.9286 4.77808 14.7968 4.69302 13.5625 3.89448L13.5219 4.06619Z" stroke="#0D0E12" stroke-width="0.5"/>
<path fill-rule="evenodd" clip-rule="evenodd" d="M19.3204 3.76261L3.59229 19.4907L3.4006 19.299L19.1287 3.57092L19.3204 3.76261Z" stroke="#0D0E12" stroke-width="0.5"/>
</g>
</g>
</svg>
